<?xml version="1.0" encoding="UTF-8" standalone="no"?>
<!-- Created with Inkscape (http://www.inkscape.org/) -->

<svg
   width="130.11934mm"
   height="115.66508mm"
   viewBox="0 0 130.11934 115.66508"
   version="1.1"
   id="svg1"
   inkscape:version="1.4.3 (0d15f75, 2025-12-25)"
   sodipodi:docname="reidworks-logo-isolated.svg"
   xmlns:inkscape="http://www.inkscape.org/namespaces/inkscape"
   xmlns:sodipodi="http://sodipodi.sourceforge.net/DTD/sodipodi-0.dtd"
   xmlns="http://www.w3.org/2000/svg"
   xmlns:svg="http://www.w3.org/2000/svg">
  <sodipodi:namedview
     id="namedview1"
     pagecolor="#ffffff"
     bordercolor="#000000"
     borderopacity="0.25"
     inkscape:showpageshadow="2"
     inkscape:pageopacity="0.0"
     inkscape:pagecheckerboard="0"
     inkscape:deskcolor="#d1d1d1"
     inkscape:document-units="mm"
     inkscape:zoom="1.6168981"
     inkscape:cx="339.53901"
     inkscape:cy="224.1947"
     inkscape:window-width="3840"
     inkscape:window-height="2054"
     inkscape:window-x="1609"
     inkscape:window-y="-11"
     inkscape:window-maximized="1"
     inkscape:current-layer="layer1" />
  <defs
     id="defs1" />
  <g
     inkscape:label="Layer 1"
     inkscape:groupmode="layer"
     id="layer1"
     transform="translate(-21.612387,-97.277633)">
    <path
       style="fill:#1f7a5c;fill-opacity:1;stroke-width:0.0692534"
       d="m 72.73515,212.89862 c -1.446486,-0.0837 -2.879142,-0.49635 -4.118896,-1.1865 -0.775813,-0.43188 -1.499742,-1.11412 -1.834471,-1.72884 l -0.276896,-0.50852 v -0.86602 c 0,-0.82997 0.0091,-0.88479 0.218089,-1.31637 0.265427,-0.54808 0.48593,-0.76557 1.02759,-1.01352 0.62361,-0.28546 1.541096,-0.30671 2.883565,-0.0668 1.622961,0.29002 2.504386,0.39039 3.797033,0.43234 1.943219,0.063 2.910609,-0.1673 3.621079,-0.86234 0.41319,-0.40419 0.5514,-0.62581 0.72743,-1.16642 0.53418,-1.6405 -0.0158,-2.97497 -1.39557,-3.38645 -0.7516,-0.22413 -6.239785,-1.18689 -8.049025,-1.41198 -0.890479,-0.11079 -1.271849,-0.42251 -1.272366,-1.04 0,-0.39874 0.237024,-0.71559 0.656041,-0.87574 0.296133,-0.1132 0.436306,-0.11302 2.668323,0.003 3.55787,0.18536 6.598677,0.101 10.100697,-0.2802 0.54967,-0.0599 1.01782,-0.12018 1.04033,-0.1341 0.0225,-0.014 0.3018,-0.0611 0.62064,-0.10475 1.17389,-0.16087 4.99856,-0.96236 6.16436,-1.29181 0.86839,-0.24541 1.93518,-0.57436 2.05446,-0.63351 0.0702,-0.0348 0.57929,-0.2125 1.13136,-0.39488 0.55208,-0.18238 1.34644,-0.46341 1.76525,-0.62449 0.41881,-0.16109 1.01069,-0.38896 1.31527,-0.50641 0.30459,-0.11743 0.74071,-0.30473 0.96915,-0.41621 0.22845,-0.11148 0.58668,-0.27558 0.79609,-0.36465 0.56505,-0.24037 2.918897,-1.41986 3.634327,-1.82112 0.34266,-0.19219 0.74762,-0.41463 0.89992,-0.49428 0.35823,-0.18738 1.26064,-0.76439 2.82713,-1.8077 1.59434,-1.06183 1.74801,-1.16992 2.50321,-1.76066 0.34266,-0.26805 0.84745,-0.659 1.12175,-0.86881 0.27431,-0.20979 0.51659,-0.41038 0.53843,-0.44574 0.0218,-0.0354 0.23353,-0.21145 0.47042,-0.39134 0.97333,-0.73908 4.19818,-3.83527 5.25461,-5.04498 0.16433,-0.18816 0.47011,-0.53481 0.67951,-0.77034 0.20941,-0.23552 0.523,-0.59599 0.69689,-0.80104 0.49393,-0.58248 2.58537,-3.39019 3.02913,-4.06657 0.21977,-0.33495 0.48117,-0.71649 0.58089,-0.84787 0.0997,-0.13137 0.313,-0.47268 0.47392,-0.75847 0.16092,-0.28579 0.42331,-0.72227 0.58309,-0.96995 0.63715,-0.98774 2.45734,-4.51325 2.8437,-5.50794 0.1036,-0.26674 0.30497,-0.71881 0.44748,-1.00461 0.47977,-0.96217 1.86592,-4.9692 2.38471,-6.89357 0.14368,-0.53299 0.51567,-2.27871 0.90791,-4.26085 0.43767,-2.21162 0.7808,-5.01688 0.89352,-7.30498 0.0494,-1.00266 0.0488,-4.99614 -5.8e-4,-5.5185 -0.0196,-0.20613 -0.0823,-0.99833 -0.13942,-1.76044 -0.12078,-1.61239 -0.1242,-1.64096 -0.38112,-3.18698 -0.75516,-4.54444 -1.53914,-7.36589 -3.30158,-11.8819 -0.65414,-1.67616 -2.42972,-5.13963 -3.44527,-6.72038 -0.70982,-1.10486 -2.14958,-3.53705 -2.5633,-4.33014 -1.19915,-2.29878 -1.67282,-4.97634 -1.28261,-7.25044 0.13748,-0.80129 0.5767,-2.33284 0.84388,-2.94271 0.63761,-1.45541 1.90263,-3.07719 3.22212,-4.13087 0.81343,-0.64955 1.93456,-1.27176 2.89466,-1.60645 0.19037,-0.0664 0.39592,-0.14639 0.45678,-0.17783 0.1623,-0.0839 1.46716,-0.38883 2.0843,-0.48715 0.78186,-0.12455 3.00933,-0.0483 3.86224,0.13205 2.33753,0.49455 4.27432,1.67185 6.0711,3.69039 0.38516,0.43269 0.93621,1.2217 1.85215,2.65194 1.30802,2.0424 3.52707,3.0523 7.0986,3.23058 0.70437,0.0352 1.37412,0.0793 1.48834,0.0981 0.11422,0.0188 0.76841,0.067 1.45373,0.10715 2.26152,0.13259 2.9477,0.28774 3.21952,0.72791 0.23072,0.37362 0.24071,0.63509 0.0442,1.15705 -0.15265,0.40549 -1.11016,1.92861 -1.81999,2.89507 -0.12594,0.17148 -0.31307,0.45207 -0.41582,0.62354 -0.10278,0.17148 -0.45629,0.67031 -0.7856,1.10852 -2.14464,2.8539 -3.178,5.31127 -3.01205,7.16272 0.0243,0.27114 0.0566,0.53974 0.0717,0.59689 0.0152,0.0571 0.0598,0.36894 0.0993,0.69282 0.0394,0.3239 0.18038,1.19686 0.31322,1.9399 0.216,1.20834 0.37401,2.30792 0.69536,4.83879 0.0549,0.43217 0.16276,1.57013 0.23975,2.52881 0.077,0.95866 0.17236,2.06644 0.21194,2.46173 0.0936,0.93498 0.0931,4.6741 -8.7e-4,6.65986 -0.089,1.8797 -0.45257,5.78662 -0.66083,7.10142 -0.24608,1.55352 -0.36806,2.17106 -0.75954,3.84517 -0.049,0.20957 -0.15734,0.69282 -0.24073,1.07387 -0.7571,3.45948 -2.33501,7.97864 -4.19694,12.02006 -0.4541,0.98566 -1.67868,3.38995 -1.93699,3.803 -0.13379,0.21394 -0.59657,0.98135 -1.0284,1.70535 -1.30647,2.1904 -2.58021,4.07291 -3.91428,5.78506 -0.31174,0.40011 -0.66567,0.86535 -0.78651,1.03388 -0.24327,0.33928 -1.32998,1.62795 -1.87624,2.22492 -0.19304,0.21097 -0.59986,0.66304 -0.90401,1.00459 -0.61524,0.69087 -2.84506,2.94378 -3.80817,3.8476 -1.55045,1.45502 -3.63749,3.18131 -5.68969,4.70624 -1.60926,1.19577 -4.09316,2.79329 -6.63238,4.26561 -0.88982,0.51594 -4.41001,2.27111 -5.39956,2.69223 -0.41881,0.17822 -0.82377,0.35185 -0.89992,0.38583 -1.5187,0.67776 -4.97752,1.90445 -7.02766,2.49237 -1.23331,0.3537 -1.934657,0.59385 -2.386957,0.81734 -1.5069,0.7446 -2.55887,2.02726 -3.05317,3.72268 -0.15142,0.51937 -0.18762,0.80872 -0.21671,1.73205 -0.0315,1.0007 -0.0197,1.16502 0.12192,1.68939 0.40363,1.49486 1.51963,2.42436 3.25996,2.71515 0.75159,0.12559 2.051927,0.28272 5.426007,0.6557 0.83762,0.0926 1.89677,0.21747 2.35365,0.27752 0.45689,0.0601 1.04876,0.1357 1.31529,0.16812 0.26651,0.0325 1.10759,0.13799 1.86907,0.23461 0.76147,0.0966 1.94522,0.24128 2.63055,0.32148 2.86203,0.3349 3.07232,0.38069 3.3458,0.72864 0.26111,0.33222 0.16874,0.88033 -0.18941,1.12392 -0.17068,0.11608 -1.23737,0.1224 -21.258747,0.12611 -11.59349,0.002 -21.452883,-0.0177 -21.909763,-0.0442 z m 16.701603,-4.94465 c 0.69078,-0.14543 1.23246,-0.36523 1.45916,-0.59214 0.12566,-0.12576 0.25426,-0.38339 0.35211,-0.70537 0.0848,-0.27898 0.21723,-0.70606 0.29433,-0.94905 0.39127,-1.23299 0.22818,-2.27895 -0.4985,-3.19721 -1.06133,-1.34115 -4.19853,-1.79166 -6.09047,-0.87459 -0.63544,0.30801 -1.31684,0.99236 -1.5122,1.51872 -0.38409,1.03491 -0.3401,2.04251 0.12937,2.96351 0.20632,0.40478 0.86025,1.04854 1.28271,1.26278 0.47752,0.24214 1.42794,0.52498 2.00382,0.59631 0.79132,0.098 2.05866,0.0867 2.57967,-0.023 z m -65.955288,-6.82973 c -0.763316,-0.0385 -0.963605,-0.1045 -1.379234,-0.45452 -0.340378,-0.28665 -0.489844,-0.64434 -0.489844,-1.17228 0,-0.53866 0.08813,-0.73791 0.580751,-1.31305 0.416132,-0.48583 50.278818,-50.40877 51.094726,-51.15645 1.779086,-1.63035 3.696309,-2.47781 5.781389,-2.55557 2.27583,-0.0849 4.28862,0.71239 5.86158,2.32171 0.97363,0.99612 1.34927,1.65148 2.13308,3.72149 0.70101,1.85128 0.90113,2.55203 1.27622,4.46871 0.48092,2.45737 0.59314,3.67139 0.58925,6.37396 -0.003,1.68642 -0.0301,2.26191 -0.15798,3.29091 -0.62419,5.02089 -2.2144,9.37845 -4.89229,13.40612 -2.1842,3.28511 -5.44341,6.51461 -8.63679,8.55803 -0.296317,0.1896 -0.791887,0.50841 -1.101291,0.70846 -0.309396,0.20005 -0.584946,0.36374 -0.61235,0.36374 -0.02742,0 -0.310611,0.14521 -0.629353,0.32273 -1.149888,0.64032 -3.442902,1.61461 -4.594592,1.95218 -0.266514,0.0782 -0.796085,0.23538 -1.176825,0.34943 -0.380741,0.11405 -0.925884,0.25543 -1.211437,0.31415 -0.285554,0.0588 -0.628224,0.13874 -0.761481,0.17783 -0.42345,0.1242 -2.51726,0.41386 -3.508746,0.48541 -1.846163,0.13322 -4.714699,0.0526 -6.269238,-0.17617 -2.246305,-0.33057 -3.793756,-0.39274 -5.17464,-0.20782 -1.247274,0.16701 -2.533712,0.54239 -3.478446,1.01501 -1.062055,0.53131 -1.478115,0.88474 -3.7576,3.19198 -1.217249,1.23208 -2.378573,2.38686 -2.580718,2.56618 -0.943462,0.83697 -2.158986,1.62089 -3.244456,2.09245 -1.577613,0.68536 -2.451775,0.9456 -3.855784,1.14787 -0.537735,0.0774 -1.117875,0.16232 -1.28921,0.18857 -0.367818,0.0563 -7.460301,0.0721 -8.514691,0.0189 z m 43.507999,-5.75208 c -1.528041,-0.0711 -3.071543,-0.2021 -3.33579,-0.28305 -0.347766,-0.10653 -0.548971,-0.30657 -0.641693,-0.63798 -0.07597,-0.27153 -0.06984,-0.34228 0.05346,-0.62127 0.213035,-0.482 0.360701,-0.53 1.977721,-0.64288 2.978391,-0.20792 4.315669,-0.40716 6.895919,-1.02744 1.946041,-0.46783 4.355492,-1.28775 6.126422,-2.08479 1.53813,-0.69226 4.17281,-2.09895 4.24582,-2.26689 0.0127,-0.0292 0.0542,-0.0531 0.0924,-0.0531 0.19357,0 3.53759,-2.42058 4.38414,-3.17346 1.76275,-1.56772 3.88067,-3.74248 4.49344,-4.61409 0.11762,-0.16731 0.4721,-0.61882 0.78774,-1.00337 0.31563,-0.38454 0.84963,-1.11262 1.18666,-1.61796 0.9963,-1.49373 2.63526,-4.37368 2.63526,-4.63061 0,-0.0425 0.057,-0.16005 0.12667,-0.2612 0.26145,-0.37953 1.47671,-3.32293 1.82086,-4.41011 0.17642,-0.55736 0.59654,-2.03221 0.74992,-2.63273 0.97773,-3.8277 1.29742,-8.19521 0.87483,-11.95119 -0.30518,-2.71237 -0.4934,-3.8068 -0.90556,-5.2656 -0.10225,-0.36191 -0.24208,-0.86068 -0.31072,-1.10836 -0.40199,-1.45051 -0.62855,-2.12495 -1.16114,-3.45649 -0.64997,-1.62502 -1.46024,-3.31862 -2.02558,-4.23384 -0.20008,-0.3239 -0.49571,-0.82273 -0.65696,-1.10852 -0.16125,-0.28579 -0.5677,-0.97168 -0.90324,-1.52421 -0.98199,-1.61704 -1.29677,-2.39261 -1.55604,-3.83356 -0.36181,-2.01102 0.0503,-3.94666 1.22106,-5.73608 0.34505,-0.52735 1.00426,-1.23543 1.54908,-1.66388 1.42531,-1.12091 3.39187,-1.65297 5.368227,-1.45241 0.97959,0.0994 1.61267,0.2773 2.40645,0.67615 1.72215,0.86533 2.67598,1.95217 4.30769,4.90836 0.10516,0.19052 0.29561,0.53347 0.42322,0.76209 0.36947,0.66204 1.47629,2.87058 1.61232,3.21728 0.0682,0.17387 0.334,0.81496 0.59063,1.42464 1.39606,3.3168 2.52571,7.68025 2.9057,11.22373 0.0613,0.57157 0.14494,1.3354 0.18585,1.6974 0.041,0.362 0.0908,1.60908 0.11076,2.77129 0.0681,3.95849 -0.2227,6.73788 -1.123,10.73407 -0.45796,2.03278 -0.54281,2.34452 -1.12327,4.12698 -0.6455,1.98214 -1.44023,3.94541 -2.24362,5.54258 -0.38336,0.7621 -0.72119,1.41682 -0.75073,1.45492 -0.0296,0.0382 -0.18825,0.33428 -0.35266,0.65818 -0.25941,0.51101 -0.96141,1.67708 -1.62667,2.70201 -0.67319,1.03712 -2.2357,3.11356 -2.97169,3.94909 -0.21816,0.24768 -0.60294,0.68416 -0.85503,0.96996 -0.58305,0.66096 -2.829377,2.91175 -3.645217,3.65246 -0.71935,0.65309 -1.48864,1.28188 -2.64402,2.16109 -0.44947,0.34204 -0.87175,0.67041 -0.93838,0.72971 -0.0666,0.0593 -0.13708,0.10783 -0.15657,0.10783 -0.0195,0 -0.40109,0.24587 -0.84801,0.54638 -2.32968,1.56648 -5.08211,3.07126 -7.18129,3.92608 -0.34266,0.13955 -0.88781,0.36151 -1.21144,0.49326 -1.21774,0.49576 -4.44391,1.50195 -5.30045,1.65313 -0.14969,0.0264 -0.64599,0.13599 -1.10288,0.24349 -0.45689,0.10749 -0.98646,0.21731 -1.17683,0.24403 -0.19037,0.0267 -0.41228,0.0733 -0.49314,0.10339 -0.51851,0.19326 -3.665985,0.51471 -6.048633,0.61775 -1.76172,0.0762 -2.161103,0.0759 -3.841992,-0.002 z"
       id="path2" />
  </g>
</svg>
